<svg xmlns="http://www.w3.org/2000/svg" width="24.681" height="47.144" viewBox="0 0 24.681 47.144">
  <g id="Group_1" data-name="Group 1" transform="translate(-115.337 -41.413)">
    <path id="Path_4" data-name="Path 4" d="M115.337,75.936c0-6.529,4.069-10.951,10.672-10.951,4.488,0,7.574,3.832,7.574,6.418l.027-29.99,6.408,2.073V74.211c0,7.639-4.342,14.346-12.357,14.346C119.946,88.557,115.337,83.608,115.337,75.936Zm5.816-.733c0,5.227,2.547,7.795,6.522,7.795,7.217,0,6.085-9.988,6.085-9.988-.177-3.5-3.113-5.014-6.1-5.014C123.689,68,121.153,70.832,121.153,75.2Z" fill="#fff"/>
  </g>
</svg>
